<?xml version="1.0" standalone="no"?><svg xmlns="http://www.w3.org/2000/svg" viewBox="0 0 1440 320"><path fill="#273036" fill-opacity="0.8" d="M0,192L0,288L51.4,288L51.4,256L102.9,256L102.9,32L154.3,32L154.3,128L205.7,128L205.7,0L257.1,0L257.1,256L308.6,256L308.6,256L360,256L360,64L411.4,64L411.4,32L462.9,32L462.9,288L514.3,288L514.3,224L565.7,224L565.7,288L617.1,288L617.1,32L668.6,32L668.6,256L720,256L720,32L771.4,32L771.4,96L822.9,96L822.9,64L874.3,64L874.3,64L925.7,64L925.7,96L977.1,96L977.1,288L1028.6,288L1028.6,160L1080,160L1080,160L1131.4,160L1131.4,32L1182.9,32L1182.9,0L1234.3,0L1234.3,192L1285.7,192L1285.7,32L1337.1,32L1337.1,32L1388.6,32L1388.6,0L1440,0L1440,320L1388.6,320L1388.6,320L1337.1,320L1337.1,320L1285.7,320L1285.7,320L1234.3,320L1234.3,320L1182.9,320L1182.9,320L1131.4,320L1131.4,320L1080,320L1080,320L1028.6,320L1028.6,320L977.1,320L977.1,320L925.7,320L925.7,320L874.3,320L874.3,320L822.9,320L822.9,320L771.4,320L771.4,320L720,320L720,320L668.6,320L668.6,320L617.1,320L617.1,320L565.7,320L565.7,320L514.3,320L514.3,320L462.9,320L462.9,320L411.4,320L411.4,320L360,320L360,320L308.6,320L308.6,320L257.1,320L257.1,320L205.7,320L205.7,320L154.3,320L154.3,320L102.9,320L102.9,320L51.4,320L51.4,320L0,320L0,320Z"></path></svg>